  0
SECTION
  2
HEADER
  9
$ACADVER
  1
AC1014
  9
$HANDSEED
  5
FFFF
  9
$MEASUREMENT
 70
     1
  0
ENDSEC
  0
SECTION
  2
TABLES
  0
TABLE
  2
VPORT
  5
8
330
0
100
AcDbSymbolTable
 70
     4
  0
VPORT
  5
2E
330
8
100
AcDbSymbolTableRecord
100
AcDbViewportTableRecord
  2
*ACTIVE
 70
     0
 10
0.0
 20
0.0
 11
1.0
 21
1.0
 12
210.0
 22
148.5
 13
0.0
 23
0.0
 14
10.0
 24
10.0
 15
10.0
 25
10.0
 16
0.0
 26
0.0
 36
1.0
 17
0.0
 27
0.0
 37
0.0
 40
341.0
 41
1.24
 42
50.0
 43
0.0
 44
0.0
 50
0.0
 51
0.0
 71
     0
 72
   100
 73
     1
 74
     3
 75
     0
 76
     0
 77
     0
 78
     0
  0
ENDTAB
  0
TABLE
  2
LTYPE
  5
5
330
0
100
AcDbSymbolTable
 70
     1
  0
LTYPE
  5
14
330
5
100
AcDbSymbolTableRecord
100
AcDbLinetypeTableRecord
  2
BYBLOCK
 70
     0
  3

 72
    65
 73
     0
 40
0.0
  0
LTYPE
  5
15
330
5
100
AcDbSymbolTableRecord
100
AcDbLinetypeTableRecord
  2
BYLAYER
 70
     0
  3

 72
    65
 73
     0
 40
0.0
  0
LTYPE
  5
16
330
5
100
AcDbSymbolTableRecord
100
AcDbLinetypeTableRecord
  2
CONTINUOUS
 70
     0
  3
Solid line
 72
    65
 73
     0
 40
0.0
  0
ENDTAB
  0
TABLE
  2
LAYER
  5
2
100
AcDbSymbolTable
 70
10
  0
LAYER
  5
50
100
AcDbSymbolTableRecord
100
AcDbLayerTableRecord
  2
0
 70
0
  6
CONTINUOUS
  0
LAYER
  5
51
100
AcDbSymbolTableRecord
100
AcDbLayerTableRecord
  2
[fixed]_BG
 70
0
  6
CONTINUOUS
  0
LAYER
  5
52
100
AcDbSymbolTableRecord
100
AcDbLayerTableRecord
  2
Edge.Cuts
 70
0
  6
CONTINUOUS
  0
LAYER
  5
53
100
AcDbSymbolTableRecord
100
AcDbLayerTableRecord
  2
B.Cu
 70
0
  6
CONTINUOUS
  0
LAYER
  5
54
100
AcDbSymbolTableRecord
100
AcDbLayerTableRecord
  2
B.Mask
 70
0
  6
CONTINUOUS
  0
LAYER
  5
55
100
AcDbSymbolTableRecord
100
AcDbLayerTableRecord
  2
B.Silk
 70
0
  6
CONTINUOUS
  0
LAYER
  5
56
100
AcDbSymbolTableRecord
100
AcDbLayerTableRecord
  2
F.Cu
 70
0
  6
CONTINUOUS
  0
LAYER
  5
57
100
AcDbSymbolTableRecord
100
AcDbLayerTableRecord
  2
F.Mask
 70
0
  6
CONTINUOUS
  0
LAYER
  5
58
100
AcDbSymbolTableRecord
100
AcDbLayerTableRecord
  2
F.Silk
 70
0
  6
CONTINUOUS
  0
LAYER
  5
59
100
AcDbSymbolTableRecord
100
AcDbLayerTableRecord
  2
Drill
 70
0
  6
CONTINUOUS
  0
ENDTAB
  0
TABLE
  2
STYLE
  5
3
330
0
100
AcDbSymbolTable
 70
     1
  0
STYLE
  5
11
330
3
100
AcDbSymbolTableRecord
100
AcDbTextStyleTableRecord
  2
STANDARD
 70
     0
 40
0.0
 41
1.0
 50
0.0
 71
     0
 42
2.5
  3
txt
  4

  0
ENDTAB
  0
TABLE
  2
VIEW
  5
6
330
0
100
AcDbSymbolTable
 70
     0
  0
ENDTAB
  0
TABLE
  2
UCS
  5
7
330
0
100
AcDbSymbolTable
 70
     0
  0
ENDTAB
  0
TABLE
  2
APPID
  5
9
330
0
100
AcDbSymbolTable
 70
     2
  0
APPID
  5
12
330
9
100
AcDbSymbolTableRecord
100
AcDbRegAppTableRecord
  2
ACAD
 70
     0
  0
ENDTAB
  0
TABLE
  2
DIMSTYLE
  5
A
330
0
100
AcDbSymbolTable
 70
     1
  0
DIMSTYLE
105
27
330
A
100
AcDbSymbolTableRecord
100
AcDbDimStyleTableRecord
  2
ISO-25
 70
     0
  3

  4

  5

  6

  7

 40
1.0
 41
2.5
 42
0.625
 43
3.75
 44
1.25
 45
0.0
 46
0.0
 47
0.0
 48
0.0
140
2.5
141
2.5
142
0.0
143
0.03937007874016
144
1.0
145
0.0
146
1.0
147
0.625
 71
     0
 72
     0
 73
     0
 74
     0
 75
     0
 76
     0
 77
     1
 78
     8
170
     0
171
     3
172
     1
173
     0
174
     0
175
     0
176
     0
177
     0
178
     0
270
     2
271
     2
272
     2
273
     2
274
     3
340
11
275
     0
280
     0
281
     0
282
     0
283
     0
284
     8
285
     0
286
     0
287
     3
288
     0
  0
ENDTAB
  0
TABLE
  2
BLOCK_RECORD
  5
1
330
0
100
AcDbSymbolTable
 70
     1
  0
BLOCK_RECORD
  5
1F
330
1
100
AcDbSymbolTableRecord
100
AcDbBlockTableRecord
  2
*MODEL_SPACE
  0
BLOCK_RECORD
  5
1B
330
1
100
AcDbSymbolTableRecord
100
AcDbBlockTableRecord
  2
*PAPER_SPACE
  0
ENDTAB
  0
ENDSEC
  0
SECTION
  2
BLOCKS
  0
BLOCK
  5
20
330
1F
100
AcDbEntity
  8
0
100
AcDbBlockBegin
  2
*MODEL_SPACE
 70
     0
 10
0.0
 20
0.0
 30
0.0
  3
*MODEL_SPACE
  1

  0
ENDBLK
  5
21
330
1F
100
AcDbEntity
  8
0
100
AcDbBlockEnd
  0
BLOCK
  5
1C
330
1B
100
AcDbEntity
 67
     1
  8
0
100
AcDbBlockBegin
  2
*PAPER_SPACE
  1

  0
ENDBLK
  5
1D
330
1B
100
AcDbEntity
 67
     1
  8
0
100
AcDbBlockEnd
  0
ENDSEC
  0
SECTION
  2
ENTITIES
  0
LWPOLYLINE
  5
100
100
AcDbEntity
  8
[fixed]_BG
 62
7
100
AcDbPolyline
 90
4
 70
1
 10
0.000000
 20
100.000000
 30
0.0
 10
100.000000
 20
100.000000
 30
0.0
 10
100.000000
 20
0.000000
 30
0.0
 10
0.000000
 20
0.000000
 30
0.0
  0
LWPOLYLINE
  5
101
100
AcDbEntity
  8
Edge.Cuts
 62
1
100
AcDbPolyline
 90
821
 70
0
 10
37.737303
 20
52.952510
 30
0.0
 10
37.280792
 20
51.940126
 30
0.0
 10
36.811786
 20
50.934585
 30
0.0
 10
35.842844
 20
48.939207
 30
0.0
 10
34.843560
 20
46.956741
 30
0.0
 10
33.827017
 20
44.977554
 30
0.0
 10
33.280079
 20
44.004045
 30
0.0
 10
32.704947
 20
43.043004
 30
0.0
 10
32.100487
 20
42.097999
 30
0.0
 10
31.465562
 20
41.172599
 30
0.0
 10
30.799038
 20
40.270371
 30
0.0
 10
30.099781
 20
39.394882
 30
0.0
 10
29.366655
 20
38.549703
 30
0.0
 10
28.598526
 20
37.738398
 30
0.0
 10
28.450641
 20
37.561270
 30
0.0
 10
28.296186
 20
37.399915
 30
0.0
 10
28.135347
 20
37.254079
 30
0.0
 10
27.968319
 20
37.123512
 30
0.0
 10
27.795292
 20
37.007959
 30
0.0
 10
27.616459
 20
36.907168
 30
0.0
 10
27.432008
 20
36.820888
 30
0.0
 10
27.242136
 20
36.748868
 30
0.0
 10
27.047030
 20
36.690868
 30
0.0
 10
26.846884
 20
36.646608
 30
0.0
 10
26.641889
 20
36.615848
 30
0.0
 10
26.432236
 20
36.598338
 30
0.0
 10
25.999724
 20
36.602038
 30
0.0
 10
25.550880
 20
36.655728
 30
0.0
 10
21.359549
 20
36.655728
 30
0.0
 10
21.336739
 20
36.431111
 30
0.0
 10
21.326229
 20
36.198586
 30
0.0
 10
21.332629
 20
35.715915
 30
0.0
 10
21.388779
 20
34.722747
 30
0.0
 10
21.400549
 20
34.236640
 30
0.0
 10
21.376159
 20
33.773774
 30
0.0
 10
21.344479
 20
33.554867
 30
0.0
 10
21.296639
 20
33.346342
 30
0.0
 10
21.230269
 20
33.149725
 30
0.0
 10
21.142999
 20
32.966542
 30
0.0
 10
20.756768
 20
32.725208
 30
0.0
 10
20.365669
 20
32.501295
 30
0.0
 10
19.590297
 20
32.063726
 30
0.0
 10
19.216737
 20
31.829067
 30
0.0
 10
18.859736
 20
31.569827
 30
0.0
 10
18.524652
 20
31.275503
 30
0.0
 10
18.367003
 20
31.111905
 30
0.0
 10
18.216842
 20
30.935597
 30
0.0
 10
17.812848
 20
30.646981
 30
0.0
 10
17.440373
 20
30.334066
 30
0.0
 10
17.101472
 20
29.995486
 30
0.0
 10
16.798200
 20
29.629874
 30
0.0
 10
16.532612
 20
29.235862
 30
0.0
 10
16.306763
 20
28.812083
 30
0.0
 10
16.122709
 20
28.357168
 30
0.0
 10
15.982506
 20
27.869750
 30
0.0
 10
15.907376
 20
27.603034
 30
0.0
 10
15.865206
 20
27.339571
 30
0.0
 10
15.853976
 20
27.080151
 30
0.0
 10
15.871696
 20
26.825557
 30
0.0
 10
15.916386
 20
26.576575
 30
0.0
 10
15.986056
 20
26.333992
 30
0.0
 10
16.078706
 20
26.098592
 30
0.0
 10
16.192335
 20
25.871163
 30
0.0
 10
16.324959
 20
25.652489
 30
0.0
 10
16.474579
 20
25.443356
 30
0.0
 10
16.639205
 20
25.244548
 30
0.0
 10
16.816840
 20
25.056854
 30
0.0
 10
17.005495
 20
24.881057
 30
0.0
 10
17.203175
 20
24.717942
 30
0.0
 10
17.407886
 20
24.568298
 30
0.0
 10
17.617636
 20
24.432908
 30
0.0
 10
18.081198
 20
24.329137
 30
0.0
 10
18.544103
 20
24.204219
 30
0.0
 10
19.471643
 20
23.949651
 30
0.0
 10
19.938130
 20
23.849359
 30
0.0
 10
20.407659
 20
23.786639
 30
0.0
 10
20.643854
 20
23.773959
 30
0.0
 10
20.881157
 20
23.776059
 30
0.0
 10
21.119681
 20
23.794999
 30
0.0
 10
21.359546
 20
23.832499
 30
0.0
 10
21.359546
 20
11.292080
 30
0.0
 10
21.586336
 20
11.270830
 30
0.0
 10
21.828046
 20
11.266830
 30
0.0
 10
22.343359
 20
11.292060
 30
0.0
 10
22.879736
 20
11.330830
 30
0.0
 10
23.411431
 20
11.346190
 30
0.0
 10
23.667476
 20
11.333550
 30
0.0
 10
23.912696
 20
11.301200
 30
0.0
 10
24.143871
 20
11.244530
 30
0.0
 10
24.357784
 20
11.158910
 30
0.0
 10
24.551217
 20
11.039734
 30
0.0
 10
24.720949
 20
10.882377
 30
0.0
 10
24.863765
 20
10.682224
 30
0.0
 10
24.976442
 20
10.434659
 30
0.0
 10
25.234768
 20
10.000084
 30
0.0
 10
25.529489
 20
9.581933
 30
0.0
 10
25.857735
 20
9.183767
 30
0.0
 10
26.216629
 20
8.809143
 30
0.0
 10
26.603301
 20
8.461628
 30
0.0
 10
27.014875
 20
8.144781
 30
0.0
 10
27.448479
 20
7.862163
 30
0.0
 10
27.901238
 20
7.617337
 30
0.0
 10
28.370280
 20
7.413862
 30
0.0
 10
28.852733
 20
7.255302
 30
0.0
 10
29.345720
 20
7.145216
 30
0.0
 10
29.595266
 20
7.109456
 30
0.0
 10
29.846368
 20
7.087166
 30
0.0
 10
30.098668
 20
7.078866
 30
0.0
 10
30.351806
 20
7.084766
 30
0.0
 10
30.605423
 20
7.105496
 30
0.0
 10
30.859158
 20
7.141456
 30
0.0
 10
31.112657
 20
7.193106
 30
0.0
 10
31.365553
 20
7.260886
 30
0.0
 10
31.617493
 20
7.345246
 30
0.0
 10
31.868116
 20
7.446609
 30
0.0
 10
32.230446
 20
7.563583
 30
0.0
 10
32.586514
 20
7.699542
 30
0.0
 10
32.935317
 20
7.853943
 30
0.0
 10
33.275842
 20
8.026242
 30
0.0
 10
33.607085
 20
8.215901
 30
0.0
 10
33.928037
 20
8.422367
 30
0.0
 10
34.237692
 20
8.645105
 30
0.0
 10
34.535041
 20
8.883567
 30
0.0
 10
34.819077
 20
9.137212
 30
0.0
 10
35.088792
 20
9.405496
 30
0.0
 10
35.343180
 20
9.687875
 30
0.0
 10
35.581230
 20
9.983807
 30
0.0
 10
35.801939
 20
10.292744
 30
0.0
 10
36.004296
 20
10.614148
 30
0.0
 10
36.187297
 20
10.947474
 30
0.0
 10
36.349931
 20
11.292177
 30
0.0
 10
37.162167
 20
11.279577
 30
0.0
 10
37.983069
 20
11.282077
 30
0.0
 10
39.634151
 20
11.303277
 30
0.0
 10
40.455976
 20
11.307477
 30
0.0
 10
41.269748
 20
11.297577
 30
0.0
 10
42.071290
 20
11.266367
 30
0.0
 10
42.856421
 20
11.206557
 30
0.0
 10
43.545013
 20
10.707444
 30
0.0
 10
43.907212
 20
10.468766
 30
0.0
 10
44.280048
 20
10.240779
 30
0.0
 10
44.662544
 20
10.026057
 30
0.0
 10
45.053726
 20
9.827179
 30
0.0
 10
45.452618
 20
9.646721
 30
0.0
 10
45.858249
 20
9.487260
 30
0.0
 10
46.269637
 20
9.351374
 30
0.0
 10
46.685813
 20
9.241639
 30
0.0
 10
47.105798
 20
9.160639
 30
0.0
 10
47.528618
 20
9.110939
 30
0.0
 10
47.953300
 20
9.095119
 30
0.0
 10
48.378868
 20
9.115769
 30
0.0
 10
48.804346
 20
9.175449
 30
0.0
 10
49.228759
 20
9.276741
 30
0.0
 10
49.723817
 20
9.411334
 30
0.0
 10
50.206101
 20
9.577775
 30
0.0
 10
50.673092
 20
9.776910
 30
0.0
 10
51.122265
 20
10.009584
 30
0.0
 10
51.551101
 20
10.276638
 30
0.0
 10
51.957076
 20
10.578921
 30
0.0
 10
52.337669
 20
10.917274
 30
0.0
 10
52.690358
 20
11.292544
 30
0.0
 10
57.587938
 20
11.292544
 30
0.0
 10
57.662718
 20
10.989645
 30
0.0
 10
57.777129
 20
10.713421
 30
0.0
 10
57.927100
 20
10.464429
 30
0.0
 10
58.108556
 20
10.243219
 30
0.0
 10
58.317421
 20
10.050345
 30
0.0
 10
58.549620
 20
9.886363
 30
0.0
 10
58.801080
 20
9.751827
 30
0.0
 10
59.067726
 20
9.647287
 30
0.0
 10
59.345486
 20
9.573297
 30
0.0
 10
59.630281
 20
9.530417
 30
0.0
 10
59.918040
 20
9.519197
 30
0.0
 10
60.204687
 20
9.540187
 30
0.0
 10
60.486148
 20
9.593937
 30
0.0
 10
60.758348
 20
9.681017
 30
0.0
 10
61.017213
 20
9.801969
 30
0.0
 10
61.258670
 20
9.957348
 30
0.0
 10
61.818533
 20
9.808873
 30
0.0
 10
62.396381
 20
9.675252
 30
0.0
 10
62.986984
 20
9.568107
 30
0.0
 10
63.585114
 20
9.499057
 30
0.0
 10
63.885370
 20
9.482447
 30
0.0
 10
64.185545
 20
9.479747
 30
0.0
 10
64.484991
 20
9.492367
 30
0.0
 10
64.783049
 20
9.521757
 30
0.0
 10
65.079069
 20
9.569397
 30
0.0
 10
65.372398
 20
9.636747
 30
0.0
 10
65.662380
 20
9.725237
 30
0.0
 10
65.948361
 20
9.836324
 30
0.0
 10
66.208823
 20
9.907124
 30
0.0
 10
66.460157
 20
10.002044
 30
0.0
 10
66.703897
 20
10.116476
 30
0.0
 10
66.941580
 20
10.245837
 30
0.0
 10
67.404921
 20
10.530992
 30
0.0
 10
67.862474
 20
10.820798
 30
0.0
 10
68.092920
 20
10.955977
 30
0.0
 10
68.326528
 20
11.078553
 30
0.0
 10
68.564836
 20
11.183940
 30
0.0
 10
68.809378
 20
11.267550
 30
0.0
 10
69.061690
 20
11.324790
 30
0.0
 10
69.323310
 20
11.351070
 30
0.0
 10
69.595778
 20
11.341770
 30
0.0
 10
69.880623
 20
11.292380
 30
0.0
 10
78.513929
 20
11.292380
 30
0.0
 10
78.523829
 20
12.351436
 30
0.0
 10
78.521829
 20
13.416381
 30
0.0
 10
78.505169
 20
15.552443
 30
0.0
 10
78.510669
 20
17.677598
 30
0.0
 10
78.536229
 20
18.728907
 30
0.0
 10
78.584779
 20
19.768880
 30
0.0
 10
78.913527
 20
19.996875
 30
0.0
 10
79.226501
 20
20.243134
 30
0.0
 10
79.522909
 20
20.506672
 30
0.0
 10
79.801958
 20
20.786509
 30
0.0
 10
80.062863
 20
21.081663
 30
0.0
 10
80.304831
 20
21.391148
 30
0.0
 10
80.527073
 20
21.713984
 30
0.0
 10
80.728797
 20
22.049189
 30
0.0
 10
80.909214
 20
22.395777
 30
0.0
 10
81.067534
 20
22.752769
 30
0.0
 10
81.202965
 20
23.119182
 30
0.0
 10
81.314719
 20
23.494033
 30
0.0
 10
81.401999
 20
23.876339
 30
0.0
 10
81.464019
 20
24.265119
 30
0.0
 10
81.499999
 20
24.659389
 30
0.0
 10
81.509099
 20
25.058166
 30
0.0
 10
81.575429
 20
25.478914
 30
0.0
 10
81.624399
 20
25.899357
 30
0.0
 10
81.656709
 20
26.319370
 30
0.0
 10
81.673079
 20
26.738827
 30
0.0
 10
81.674279
 20
27.157610
 30
0.0
 10
81.660869
 20
27.575595
 30
0.0
 10
81.593299
 20
28.408671
 30
0.0
 10
81.476039
 20
29.237088
 30
0.0
 10
81.314889
 20
30.059827
 30
0.0
 10
81.115450
 20
30.875918
 30
0.0
 10
80.883394
 20
31.684376
 30
0.0
 10
80.759607
 20
32.162752
 30
0.0
 10
80.621190
 20
32.637717
 30
0.0
 10
80.469018
 20
33.109121
 30
0.0
 10
80.303963
 20
33.576817
 30
0.0
 10
79.938701
 20
34.500497
 30
0.0
 10
79.532350
 20
35.407542
 30
0.0
 10
79.091997
 20
36.296837
 30
0.0
 10
78.624588
 20
37.167172
 30
0.0
 10
78.137112
 20
38.017364
 30
0.0
 10
77.636563
 20
38.846230
 30
0.0
 10
77.464340
 20
39.045819
 30
0.0
 10
77.301909
 20
39.256227
 30
0.0
 10
76.999547
 20
39.702332
 30
0.0
 10
76.715273
 20
40.170864
 30
0.0
 10
76.434924
 20
40.648087
 30
0.0
 10
76.144334
 20
41.120260
 30
0.0
 10
75.829340
 20
41.573646
 30
0.0
 10
75.658265
 20
41.789000
 30
0.0
 10
75.475779
 20
41.994504
 30
0.0
 10
75.280108
 20
42.188443
 30
0.0
 10
75.069484
 20
42.369096
 30
0.0
 10
74.703431
 20
42.738804
 30
0.0
 10
74.318502
 20
43.082077
 30
0.0
 10
73.916076
 20
43.399899
 30
0.0
 10
73.497534
 20
43.693256
 30
0.0
 10
73.064261
 20
43.963131
 30
0.0
 10
72.617634
 20
44.210506
 30
0.0
 10
72.159036
 20
44.436368
 30
0.0
 10
71.689847
 20
44.641700
 30
0.0
 10
71.211449
 20
44.827487
 30
0.0
 10
70.725223
 20
44.994710
 30
0.0
 10
70.232549
 20
45.144355
 30
0.0
 10
69.734810
 20
45.277408
 30
0.0
 10
69.233385
 20
45.394848
 30
0.0
 10
68.729654
 20
45.497665
 30
0.0
 10
67.720809
 20
45.663355
 30
0.0
 10
66.938302
 20
45.956938
 30
0.0
 10
66.157249
 20
46.282136
 30
0.0
 10
65.772409
 20
46.459958
 30
0.0
 10
65.394102
 20
46.649724
 30
0.0
 10
65.024380
 20
46.852780
 30
0.0
 10
64.665306
 20
47.070475
 30
0.0
 10
64.318930
 20
47.304157
 30
0.0
 10
63.987312
 20
47.555171
 30
0.0
 10
63.672505
 20
47.824864
 30
0.0
 10
63.376567
 20
48.114584
 30
0.0
 10
63.101553
 20
48.425677
 30
0.0
 10
62.849520
 20
48.759491
 30
0.0
 10
62.622524
 20
49.117374
 30
0.0
 10
62.422621
 20
49.500670
 30
0.0
 10
61.366784
 20
51.139865
 30
0.0
 10
60.295320
 20
52.777275
 30
0.0
 10
58.150911
 20
55.997173
 30
0.0
 10
57.979228
 20
56.148868
 30
0.0
 10
57.848043
 20
56.309554
 30
0.0
 10
57.755143
 20
56.475294
 30
0.0
 10
57.698323
 20
56.642145
 30
0.0
 10
57.675373
 20
56.806172
 30
0.0
 10
57.684073
 20
56.963435
 30
0.0
 10
57.722203
 20
57.109995
 30
0.0
 10
57.787573
 20
57.241913
 30
0.0
 10
57.877943
 20
57.355250
 30
0.0
 10
57.991113
 20
57.446060
 30
0.0
 10
58.124872
 20
57.510420
 30
0.0
 10
58.277009
 20
57.544390
 30
0.0
 10
58.445312
 20
57.544015
 30
0.0
 10
58.627568
 20
57.505375
 30
0.0
 10
58.821564
 20
57.424515
 30
0.0
 10
59.025090
 20
57.297498
 30
0.0
 10
59.268192
 20
57.274428
 30
0.0
 10
59.501431
 20
57.290588
 30
0.0
 10
59.725326
 20
57.342208
 30
0.0
 10
59.940395
 20
57.425528
 30
0.0
 10
60.147152
 20
57.536797
 30
0.0
 10
60.346118
 20
57.672258
 30
0.0
 10
60.537806
 20
57.828151
 30
0.0
 10
60.722734
 20
58.000720
 30
0.0
 10
61.074382
 20
58.380859
 30
0.0
 10
61.405194
 20
58.782614
 30
0.0
 10
61.719308
 20
59.175931
 30
0.0
 10
62.020860
 20
59.530749
 30
0.0
 10
62.179301
 20
59.726060
 30
0.0
 10
62.336981
 20
59.944947
 30
0.0
 10
62.489678
 20
60.183331
 30
0.0
 10
62.633167
 20
60.437139
 30
0.0
 10
62.763223
 20
60.702295
 30
0.0
 10
62.875622
 20
60.974720
 30
0.0
 10
62.966132
 20
61.250342
 30
0.0
 10
63.030562
 20
61.525081
 30
0.0
 10
63.064642
 20
61.794862
 30
0.0
 10
63.064175
 20
62.055609
 30
0.0
 10
63.024935
 20
62.303247
 30
0.0
 10
62.942685
 20
62.533701
 30
0.0
 10
62.884115
 20
62.641207
 30
0.0
 10
62.813215
 20
62.742891
 30
0.0
 10
62.729445
 20
62.838241
 30
0.0
 10
62.632295
 20
62.926751
 30
0.0
 10
62.521223
 20
63.007901
 30
0.0
 10
62.395704
 20
63.081181
 30
0.0
 10
62.255211
 20
63.146091
 30
0.0
 10
62.099215
 20
63.202121
 30
0.0
 10
61.845289
 20
63.241011
 30
0.0
 10
61.598635
 20
63.310371
 30
0.0
 10
61.362330
 20
63.407611
 30
0.0
 10
61.139454
 20
63.530189
 30
0.0
 10
60.933091
 20
63.675542
 30
0.0
 10
60.746317
 20
63.841112
 30
0.0
 10
60.582216
 20
64.024342
 30
0.0
 10
60.443863
 20
64.222667
 30
0.0
 10
60.334343
 20
64.433532
 30
0.0
 10
60.256733
 20
64.654375
 30
0.0
 10
60.214113
 20
64.882637
 30
0.0
 10
60.209513
 20
65.115762
 30
0.0
 10
60.246113
 20
65.351185
 30
0.0
 10
60.326943
 20
65.586350
 30
0.0
 10
60.455089
 20
65.818697
 30
0.0
 10
60.633625
 20
66.045665
 30
0.0
 10
60.790376
 20
66.270315
 30
0.0
 10
60.964695
 20
66.468277
 30
0.0
 10
61.154676
 20
66.639872
 30
0.0
 10
61.358417
 20
66.785419
 30
0.0
 10
61.574006
 20
66.905240
 30
0.0
 10
61.799541
 20
66.999650
 30
0.0
 10
62.033112
 20
67.068980
 30
0.0
 10
62.272818
 20
67.113550
 30
0.0
 10
62.516749
 20
67.133660
 30
0.0
 10
62.763000
 20
67.129560
 30
0.0
 10
63.009664
 20
67.101750
 30
0.0
 10
63.254835
 20
67.050460
 30
0.0
 10
63.496609
 20
66.975990
 30
0.0
 10
63.733075
 20
66.878680
 30
0.0
 10
63.962331
 20
66.758847
 30
0.0
 10
64.182471
 20
66.616812
 30
0.0
 10
64.372749
 20
66.611312
 30
0.0
 10
64.553785
 20
66.621312
 30
0.0
 10
64.725835
 20
66.646202
 30
0.0
 10
64.889153
 20
66.685282
 30
0.0
 10
65.043994
 20
66.737832
 30
0.0
 10
65.190612
 20
66.803162
 30
0.0
 10
65.329262
 20
66.880562
 30
0.0
 10
65.460198
 20
66.969342
 30
0.0
 10
65.699954
 20
67.178177
 30
0.0
 10
65.911911
 20
67.424051
 30
0.0
 10
66.098113
 20
67.701337
 30
0.0
 10
66.260594
 20
68.004410
 30
0.0
 10
66.401394
 20
68.327644
 30
0.0
 10
66.522550
 20
68.665410
 30
0.0
 10
66.626101
 20
69.012084
 30
0.0
 10
66.714081
 20
69.362037
 30
0.0
 10
66.851494
 20
70.049281
 30
0.0
 10
66.951094
 20
70.682130
 30
0.0
 10
67.009684
 20
70.966050
 30
0.0
 10
67.054014
 20
71.267302
 30
0.0
 10
67.082144
 20
71.580768
 30
0.0
 10
67.092184
 20
71.901327
 30
0.0
 10
67.082184
 20
72.223861
 30
0.0
 10
67.050284
 20
72.543250
 30
0.0
 10
66.994554
 20
72.854375
 30
0.0
 10
66.913064
 20
73.152119
 30
0.0
 10
66.803909
 20
73.431359
 30
0.0
 10
66.665170
 20
73.686978
 30
0.0
 10
66.494935
 20
73.913858
 30
0.0
 10
66.291288
 20
74.106878
 30
0.0
 10
66.176337
 20
74.189088
 30
0.0
 10
66.052314
 20
74.260918
 30
0.0
 10
65.918983
 20
74.321718
 30
0.0
 10
65.776102
 20
74.370858
 30
0.0
 10
65.623430
 20
74.407688
 30
0.0
 10
65.460732
 20
74.431578
 30
0.0
 10
65.287765
 20
74.441878
 30
0.0
 10
65.104293
 20
74.437878
 30
0.0
 10
63.730434
 20
74.611295
 30
0.0
 10
63.032434
 20
74.721929
 30
0.0
 10
62.345180
 20
74.868351
 30
0.0
 10
62.009829
 20
74.959621
 30
0.0
 10
61.682262
 20
75.065431
 30
0.0
 10
61.364181
 20
75.187627
 30
0.0
 10
61.057280
 20
75.328072
 30
0.0
 10
60.763262
 20
75.488622
 30
0.0
 10
60.483824
 20
75.671142
 30
0.0
 10
60.220666
 20
75.877488
 30
0.0
 10
59.975489
 20
76.109520
 30
0.0
 10
59.886629
 20
76.305425
 30
0.0
 10
59.814829
 20
76.500799
 30
0.0
 10
59.759449
 20
76.695510
 30
0.0
 10
59.719839
 20
76.889425
 30
0.0
 10
59.695369
 20
77.082405
 30
0.0
 10
59.685369
 20
77.274317
 30
0.0
 10
59.706349
 20
77.654392
 30
0.0
 10
59.777619
 20
78.028568
 30
0.0
 10
59.894047
 20
78.395766
 30
0.0
 10
60.050509
 20
78.754903
 30
0.0
 10
60.241875
 20
79.104897
 30
0.0
 10
60.463019
 20
79.444665
 30
0.0
 10
60.708813
 20
79.773127
 30
0.0
 10
60.974129
 20
80.089201
 30
0.0
 10
61.253839
 20
80.391805
 30
0.0
 10
61.542815
 20
80.679857
 30
0.0
 10
61.835928
 20
80.952275
 30
0.0
 10
62.414054
 20
81.445885
 30
0.0
 10
62.507874
 20
81.645305
 30
0.0
 10
62.582684
 20
81.843437
 30
0.0
 10
62.639244
 20
82.040221
 30
0.0
 10
62.678344
 20
82.235592
 30
0.0
 10
62.700764
 20
82.429485
 30
0.0
 10
62.707264
 20
82.621837
 30
0.0
 10
62.698664
 20
82.812582
 30
0.0
 10
62.675734
 20
83.001658
 30
0.0
 10
62.590004
 20
83.374542
 30
0.0
 10
62.456163
 20
83.740013
 30
0.0
 10
62.280769
 20
84.097483
 30
0.0
 10
62.069931
 20
84.446478
 30
0.0
 10
61.829888
 20
84.786497
 30
0.0
 10
61.566927
 20
85.116998
 30
0.0
 10
61.287284
 20
85.437483
 30
0.0
 10
60.997221
 20
85.747438
 30
0.0
 10
60.410842
 20
86.333708
 30
0.0
 10
59.857830
 20
86.871699
 30
0.0
 10
59.642368
 20
87.085009
 30
0.0
 10
59.408824
 20
87.258733
 30
0.0
 10
59.160686
 20
87.393888
 30
0.0
 10
58.901446
 20
87.491498
 30
0.0
 10
58.634594
 20
87.552568
 30
0.0
 10
58.363623
 20
87.578128
 30
0.0
 10
58.092024
 20
87.569228
 30
0.0
 10
57.823286
 20
87.526818
 30
0.0
 10
57.560904
 20
87.451948
 30
0.0
 10
57.308364
 20
87.345637
 30
0.0
 10
57.069160
 20
87.208904
 30
0.0
 10
56.846783
 20
87.042764
 30
0.0
 10
56.644726
 20
86.848241
 30
0.0
 10
56.466478
 20
86.626346
 30
0.0
 10
56.315527
 20
86.378103
 30
0.0
 10
56.144068
 20
86.118996
 30
0.0
 10
55.789205
 20
85.739890
 30
0.0
 10
55.356900
 20
85.367686
 30
0.0
 10
54.899887
 20
85.009944
 30
0.0
 10
54.662563
 20
84.843384
 30
0.0
 10
54.419602
 20
84.688703
 30
0.0
 10
54.171180
 20
84.548654
 30
0.0
 10
53.917478
 20
84.425994
 30
0.0
 10
53.658675
 20
84.323474
 30
0.0
 10
53.394950
 20
84.243834
 30
0.0
 10
53.126482
 20
84.189864
 30
0.0
 10
52.853453
 20
84.164294
 30
0.0
 10
52.576039
 20
84.169894
 30
0.0
 10
52.294419
 20
84.209394
 30
0.0
 10
52.063722
 20
84.583491
 30
0.0
 10
51.802315
 20
85.021397
 30
0.0
 10
51.552338
 20
85.497191
 30
0.0
 10
51.444805
 20
85.741197
 30
0.0
 10
51.355935
 20
85.984958
 30
0.0
 10
51.290995
 20
86.225231
 30
0.0
 10
51.255245
 20
86.458777
 30
0.0
 10
51.253945
 20
86.682359
 30
0.0
 10
51.292395
 20
86.892734
 30
0.0
 10
51.375845
 20
87.086663
 30
0.0
 10
51.436095
 20
87.176453
 30
0.0
 10
51.509565
 20
87.260913
 30
0.0
 10
51.596925
 20
87.339643
 30
0.0
 10
51.698821
 20
87.412233
 30
0.0
 10
51.815918
 20
87.478283
 30
0.0
 10
51.948875
 20
87.537393
 30
0.0
 10
52.584463
 20
87.777427
 30
0.0
 10
53.223896
 20
88.061811
 30
0.0
 10
53.850441
 20
88.373655
 30
0.0
 10
54.468693
 20
88.731818
 30
0.0
 10
55.068955
 20
89.131298
 30
0.0
 10
55.645102
 20
89.573065
 30
0.0
 10
55.922217
 20
89.810106
 30
0.0
 10
56.191006
 20
90.058081
 30
0.0
 10
56.450705
 20
90.317111
 30
0.0
 10
56.700546
 20
90.587314
 30
0.0
 10
56.891329
 20
90.881591
 30
0.0
 10
57.071911
 20
91.197905
 30
0.0
 10
57.239365
 20
91.532854
 30
0.0
 10
57.390718
 20
91.882883
 30
0.0
 10
57.523118
 20
92.244898
 30
0.0
 10
57.633597
 20
92.615341
 30
0.0
 10
57.719227
 20
92.990812
 30
0.0
 10
57.777067
 20
93.367909
 30
0.0
 10
57.804187
 20
93.743228
 30
0.0
 10
57.797687
 20
94.113369
 30
0.0
 10
57.754617
 20
94.474947
 30
0.0
 10
57.672017
 20
94.824540
 30
0.0
 10
57.547085
 20
95.158725
 30
0.0
 10
57.376680
 20
95.474131
 30
0.0
 10
57.273548
 20
95.623725
 30
0.0
 10
57.157976
 20
95.767347
 30
0.0
 10
57.029596
 20
95.904572
 30
0.0
 10
56.888042
 20
96.034973
 30
0.0
 10
56.718747
 20
96.117370
 30
0.0
 10
56.551122
 20
96.181455
 30
0.0
 10
56.385080
 20
96.228182
 30
0.0
 10
56.220533
 20
96.258503
 30
0.0
 10
56.057391
 20
96.273370
 30
0.0
 10
55.895568
 20
96.273736
 30
0.0
 10
55.575524
 20
96.234771
 30
0.0
 10
55.259696
 20
96.149228
 30
0.0
 10
54.947376
 20
96.024723
 30
0.0
 10
54.637860
 20
95.868878
 30
0.0
 10
54.330445
 20
95.689309
 30
0.0
 10
53.719090
 20
95.289476
 30
0.0
 10
53.107668
 20
94.886173
 30
0.0
 10
52.800168
 20
94.702267
 30
0.0
 10
52.490535
 20
94.540349
 30
0.0
 10
52.178066
 20
94.408038
 30
0.0
 10
51.862052
 20
94.312952
 30
0.0
 10
51.287507
 20
94.132841
 30
0.0
 10
50.710951
 20
94.004110
 30
0.0
 10
50.132648
 20
93.921617
 30
0.0
 10
49.552865
 20
93.880220
 30
0.0
 10
48.971866
 20
93.874770
 30
0.0
 10
48.389917
 20
93.900148
 30
0.0
 10
47.807287
 20
93.951194
 30
0.0
 10
47.224236
 20
94.022771
 30
0.0
 10
46.057947
 20
94.206959
 30
0.0
 10
44.893172
 20
94.411574
 30
0.0
 10
43.732042
 20
94.595489
 30
0.0
 10
43.153506
 20
94.666831
 30
0.0
 10
42.576677
 20
94.717574
 30
0.0
 10
42.251862
 20
94.734403
 30
0.0
 10
41.929902
 20
94.728713
 30
0.0
 10
41.611461
 20
94.701300
 30
0.0
 10
41.297206
 20
94.652951
 30
0.0
 10
40.987798
 20
94.584456
 30
0.0
 10
40.683906
 20
94.496602
 30
0.0
 10
40.386193
 20
94.390180
 30
0.0
 10
40.095323
 20
94.265981
 30
0.0
 10
39.811962
 20
94.124792
 30
0.0
 10
39.536774
 20
93.967404
 30
0.0
 10
39.270424
 20
93.794606
 30
0.0
 10
39.013577
 20
93.607187
 30
0.0
 10
38.766896
 20
93.405937
 30
0.0
 10
38.531048
 20
93.191646
 30
0.0
 10
38.306698
 20
92.965102
 30
0.0
 10
38.094508
 20
92.727096
 30
0.0
 10
37.895146
 20
92.478417
 30
0.0
 10
37.709275
 20
92.219854
 30
0.0
 10
37.537560
 20
91.952197
 30
0.0
 10
37.380664
 20
91.676235
 30
0.0
 10
37.239255
 20
91.392758
 30
0.0
 10
37.113994
 20
91.102556
 30
0.0
 10
37.005550
 20
90.806417
 30
0.0
 10
36.914580
 20
90.505132
 30
0.0
 10
36.841750
 20
90.199490
 30
0.0
 10
36.787730
 20
89.890281
 30
0.0
 10
36.753190
 20
89.578293
 30
0.0
 10
36.738790
 20
89.264316
 30
0.0
 10
36.745190
 20
88.949139
 30
0.0
 10
36.773050
 20
88.633553
 30
0.0
 10
36.823060
 20
88.318347
 30
0.0
 10
36.895870
 20
88.004310
 30
0.0
 10
36.995050
 20
87.713096
 30
0.0
 10
37.122269
 20
87.423524
 30
0.0
 10
37.275424
 20
87.140000
 30
0.0
 10
37.452417
 20
86.866930
 30
0.0
 10
37.651150
 20
86.608727
 30
0.0
 10
37.869527
 20
86.369795
 30
0.0
 10
38.105449
 20
86.154543
 30
0.0
 10
38.356818
 20
85.967376
 30
0.0
 10
38.621537
 20
85.812708
 30
0.0
 10
38.897508
 20
85.694939
 30
0.0
 10
39.182634
 20
85.618479
 30
0.0
 10
39.474820
 20
85.587739
 30
0.0
 10
39.771963
 20
85.607119
 30
0.0
 10
39.921739
 20
85.636989
 30
0.0
 10
40.071970
 20
85.681039
 30
0.0
 10
40.222390
 20
85.739829
 30
0.0
 10
40.372740
 20
85.813899
 30
0.0
 10
40.522755
 20
85.903799
 30
0.0
 10
40.672175
 20
86.010099
 30
0.0
 10
40.891713
 20
86.194324
 30
0.0
 10
41.083402
 20
86.404651
 30
0.0
 10
41.252231
 20
86.636093
 30
0.0
 10
41.403194
 20
86.883671
 30
0.0
 10
41.671482
 20
87.407280
 30
0.0
 10
41.928204
 20
87.935602
 30
0.0
 10
42.064708
 20
88.189069
 30
0.0
 10
42.213293
 20
88.428760
 30
0.0
 10
42.378953
 20
88.649690
 30
0.0
 10
42.566680
 20
88.846875
 30
0.0
 10
42.781468
 20
89.015329
 30
0.0
 10
43.028303
 20
89.150067
 30
0.0
 10
43.312181
 20
89.246107
 30
0.0
 10
43.638092
 20
89.298467
 30
0.0
 10
43.909990
 20
89.250937
 30
0.0
 10
44.092870
 20
89.181167
 30
0.0
 10
44.154110
 20
89.138477
 30
0.0
 10
44.196930
 20
89.090887
 30
0.0
 10
44.222620
 20
89.038607
 30
0.0
 10
44.232420
 20
88.981857
 30
0.0
 10
44.209570
 20
88.855817
 30
0.0
 10
44.138590
 20
88.714511
 30
0.0
 10
44.029698
 20
88.559685
 30
0.0
 10
43.893119
 20
88.393081
 30
0.0
 10
43.577781
 20
88.031522
 30
0.0
 10
43.419468
 20
87.840055
 30
0.0
 10
43.274357
 20
87.643790
 30
0.0
 10
43.152667
 20
87.444470
 30
0.0
 10
43.064627
 20
87.243839
 30
0.0
 10
43.020447
 20
87.043645
 30
0.0
 10
43.018047
 20
86.944255
 30
0.0
 10
43.030397
 20
86.845625
 30
0.0
 10
42.859768
 20
85.780620
 30
0.0
 10
42.744262
 20
85.222266
 30
0.0
 10
42.668852
 20
84.952332
 30
0.0
 10
42.577832
 20
84.694545
 30
0.0
 10
42.468306
 20
84.453393
 30
0.0
 10
42.337388
 20
84.233361
 30
0.0
 10
42.182192
 20
84.038941
 30
0.0
 10
41.999830
 20
83.874617
 30
0.0
 10
41.787417
 20
83.744877
 30
0.0
 10
41.542065
 20
83.654207
 30
0.0
 10
41.260887
 20
83.607107
 30
0.0
 10
40.940996
 20
83.608008
 30
0.0
 10
40.602018
 20
83.653898
 30
0.0
 10
40.281222
 20
83.739868
 30
0.0
 10
39.976442
 20
83.861299
 30
0.0
 10
39.685516
 20
84.013558
 30
0.0
 10
39.406277
 20
84.192019
 30
0.0
 10
39.136560
 20
84.392047
 30
0.0
 10
38.874205
 20
84.609012
 30
0.0
 10
38.617045
 20
84.838285
 30
0.0
 10
38.109653
 20
85.315225
 30
0.0
 10
37.597073
 20
85.785818
 30
0.0
 10
37.333425
 20
86.007159
 30
0.0
 10
37.061988
 20
86.213020
 30
0.0
 10
36.780596
 20
86.398770
 30
0.0
 10
36.487086
 20
86.559779
 30
0.0
 10
36.345420
 20
86.608879
 30
0.0
 10
36.208047
 20
86.642619
 30
0.0
 10
36.074796
 20
86.661729
 30
0.0
 10
35.945506
 20
86.666929
 30
0.0
 10
35.698135
 20
86.638599
 30
0.0
 10
35.464605
 20
86.563459
 30
0.0
 10
35.243585
 20
86.447357
 30
0.0
 10
35.033746
 20
86.296148
 30
0.0
 10
34.833759
 20
86.115681
 30
0.0
 10
34.642293
 20
85.911805
 30
0.0
 10
34.279610
 20
85.457235
 30
0.0
 10
33.935061
 20
84.979245
 30
0.0
 10
33.598010
 20
84.524638
 30
0.0
 10
33.428972
 20
84.320734
 30
0.0
 10
33.257820
 20
84.140226
 30
0.0
 10
32.938686
 20
83.729765
 30
0.0
 10
32.625759
 20
83.272415
 30
0.0
 10
32.482701
 20
83.031503
 30
0.0
 10
32.354492
 20
82.785283
 30
0.0
 10
32.245561
 20
82.535893
 30
0.0
 10
32.160331
 20
82.285475
 30
0.0
 10
32.103251
 20
82.036161
 30
0.0
 10
32.078741
 20
81.790094
 30
0.0
 10
32.091241
 20
81.549410
 30
0.0
 10
32.145181
 20
81.316247
 30
0.0
 10
32.244981
 20
81.092745
 30
0.0
 10
32.395080
 20
80.881040
 30
0.0
 10
32.599910
 20
80.683270
 30
0.0
 10
32.863902
 20
80.501576
 30
0.0
 10
33.101787
 20
80.262281
 30
0.0
 10
33.330653
 20
79.990822
 30
0.0
 10
33.546173
 20
79.692148
 30
0.0
 10
33.744019
 20
79.371202
 30
0.0
 10
33.919862
 20
79.032932
 30
0.0
 10
34.069378
 20
78.682283
 30
0.0
 10
34.188234
 20
78.324201
 30
0.0
 10
34.272104
 20
77.963631
 30
0.0
 10
34.316664
 20
77.605520
 30
0.0
 10
34.317564
 20
77.254812
 30
0.0
 10
34.270514
 20
76.916455
 30
0.0
 10
34.227654
 20
76.753454
 30
0.0
 10
34.171184
 20
76.595394
 30
0.0
 10
34.100544
 20
76.442895
 30
0.0
 10
34.015204
 20
76.296575
 30
0.0
 10
33.914628
 20
76.157052
 30
0.0
 10
33.798272
 20
76.024944
 30
0.0
 10
33.665597
 20
75.900868
 30
0.0
 10
33.516059
 20
75.785446
 30
0.0
 10
33.349119
 20
75.679293
 30
0.0
 10
33.164236
 20
75.583023
 30
0.0
 10
32.915980
 20
75.478537
 30
0.0
 10
32.651939
 20
75.399727
 30
0.0
 10
32.375856
 20
75.340897
 30
0.0
 10
32.091475
 20
75.296407
 30
0.0
 10
31.512784
 20
75.227737
 30
0.0
 10
30.945806
 20
75.148367
 30
0.0
 10
30.676064
 20
75.090507
 30
0.0
 10
30.420477
 20
75.012967
 30
0.0
 10
30.182786
 20
74.910077
 30
0.0
 10
29.966737
 20
74.776174
 30
0.0
 10
29.776069
 20
74.605583
 30
0.0
 10
29.614524
 20
74.392641
 30
0.0
 10
29.545834
 20
74.268516
 30
0.0
 10
29.485834
 20
74.131677
 30
0.0
 10
29.393764
 20
73.817023
 30
0.0
 10
29.340234
 20
73.149441
 30
0.0
 10
29.272184
 20
72.467649
 30
0.0
 10
29.207274
 20
71.777959
 30
0.0
 10
29.163124
 20
71.086684
 30
0.0
 10
29.157424
 20
70.400140
 30
0.0
 10
29.174484
 20
70.060613
 30
0.0
 10
29.207734
 20
69.724638
 30
0.0
 10
29.259404
 20
69.393000
 30
0.0
 10
29.331704
 20
69.066492
 30
0.0
 10
29.426834
 20
68.745900
 30
0.0
 10
29.547000
 20
68.432016
 30
0.0
 10
29.859206
 20
68.300209
 30
0.0
 10
30.192834
 20
68.204989
 30
0.0
 10
30.543546
 20
68.138909
 30
0.0
 10
30.907001
 20
68.094529
 30
0.0
 10
31.654785
 20
68.041039
 30
0.0
 10
32.401469
 20
67.984939
 30
0.0
 10
32.763548
 20
67.937289
 30
0.0
 10
33.112335
 20
67.866639
 30
0.0
 10
33.443489
 20
67.765551
 30
0.0
 10
33.752670
 20
67.626573
 30
0.0
 10
33.897663
 20
67.540553
 30
0.0
 10
34.035539
 20
67.442263
 30
0.0
 10
34.165749
 20
67.330774
 30
0.0
 10
34.287754
 20
67.205157
 30
0.0
 10
34.401013
 20
67.064481
 30
0.0
 10
34.504979
 20
66.907816
 30
0.0
 10
34.599109
 20
66.734230
 30
0.0
 10
34.682869
 20
66.542793
 30
0.0
 10
34.779079
 20
66.372737
 30
0.0
 10
34.860489
 20
66.201902
 30
0.0
 10
34.980822
 20
65.858731
 30
0.0
 10
35.047692
 20
65.514948
 30
0.0
 10
35.064962
 20
65.172224
 30
0.0
 10
35.036442
 20
64.832224
 30
0.0
 10
34.965972
 20
64.496620
 30
0.0
 10
34.857377
 20
64.167082
 30
0.0
 10
34.714498
 20
63.845275
 30
0.0
 10
34.541167
 20
63.532872
 30
0.0
 10
34.341223
 20
63.231542
 30
0.0
 10
34.118497
 20
62.942951
 30
0.0
 10
33.876824
 20
62.668771
 30
0.0
 10
33.620039
 20
62.410670
 30
0.0
 10
33.351974
 20
62.170315
 30
0.0
 10
33.076465
 20
61.949380
 30
0.0
 10
32.797346
 20
61.749530
 30
0.0
 10
32.746356
 20
61.570223
 30
0.0
 10
32.711106
 20
61.394343
 30
0.0
 10
32.690896
 20
61.221814
 30
0.0
 10
32.685096
 20
61.052562
 30
0.0
 10
32.713626
 20
60.723594
 30
0.0
 10
32.791276
 20
60.406836
 30
0.0
 10
32.912498
 20
60.101694
 30
0.0
 10
33.071772
 20
59.807566
 30
0.0
 10
33.263575
 20
59.523857
 30
0.0
 10
33.482384
 20
59.249966
 30
0.0
 10
33.722674
 20
58.985297
 30
0.0
 10
33.978920
 20
58.729250
 30
0.0
 10
34.517183
 20
58.240633
 30
0.0
 10
35.052980
 20
57.779329
 30
0.0
 10
35.542114
 20
57.340550
 30
0.0
 10
35.712023
 20
57.151849
 30
0.0
 10
35.889269
 20
57.014127
 30
0.0
 10
36.072730
 20
56.920337
 30
0.0
 10
36.261283
 20
56.863407
 30
0.0
 10
36.453805
 20
56.836277
 30
0.0
 10
36.649170
 20
56.831777
 30
0.0
 10
37.043941
 20
56.863027
 30
0.0
 10
37.436609
 20
56.900567
 30
0.0
 10
37.629344
 20
56.904067
 30
0.0
 10
37.818184
 20
56.887947
 30
0.0
 10
38.002005
 20
56.845167
 30
0.0
 10
38.179681
 20
56.768667
 30
0.0
 10
38.549268
 20
56.550072
 30
0.0
 10
38.884929
 20
56.353970
 30
0.0
 10
38.991205
 20
56.254290
 30
0.0
 10
39.051785
 20
56.135573
 30
0.0
 10
39.072455
 20
56.000303
 30
0.0
 10
39.058985
 20
55.850963
 30
0.0
 10
39.017195
 20
55.690038
 30
0.0
 10
38.952855
 20
55.520011
 30
0.0
 10
38.779714
 20
55.162595
 30
0.0
 10
38.585883
 20
54.798582
 30
0.0
 10
38.417687
 20
54.447851
 30
0.0
 10
38.357677
 20
54.283673
 30
0.0
 10
38.321437
 20
54.130268
 30
0.0
 10
38.035229
 20
53.539012
 30
0.0
 10
37.737318
 20
52.952731
 30
0.0
  0
LWPOLYLINE
  5
102
100
AcDbEntity
  8
Edge.Cuts
 62
1
100
AcDbPolyline
 90
62
 70
0
 10
55.068232
 20
36.666935
 30
0.0
 10
55.512888
 20
36.688445
 30
0.0
 10
55.974187
 20
36.685045
 30
0.0
 10
56.916598
 20
36.648785
 30
0.0
 10
57.382651
 20
36.638445
 30
0.0
 10
57.835228
 20
36.648345
 30
0.0
 10
58.266802
 20
36.689735
 30
0.0
 10
58.472360
 20
36.725755
 30
0.0
 10
58.669842
 20
36.773875
 30
0.0
 10
58.647362
 20
36.918388
 30
0.0
 10
58.605532
 20
37.061134
 30
0.0
 10
58.546652
 20
37.202345
 30
0.0
 10
58.473052
 20
37.342256
 30
0.0
 10
58.290993
 20
37.619111
 30
0.0
 10
58.077947
 20
37.893540
 30
0.0
 10
57.633219
 20
38.442598
 30
0.0
 10
57.438707
 20
38.720944
 30
0.0
 10
57.287541
 20
39.004358
 30
0.0
 10
56.763572
 20
39.811713
 30
0.0
 10
56.208128
 20
40.611732
 30
0.0
 10
55.618393
 20
41.392662
 30
0.0
 10
55.309784
 20
41.772297
 30
0.0
 10
54.991543
 20
42.142752
 30
0.0
 10
54.663319
 20
42.502560
 30
0.0
 10
54.324759
 20
42.850250
 30
0.0
 10
53.975508
 20
43.184355
 30
0.0
 10
53.615218
 20
43.503406
 30
0.0
 10
53.243532
 20
43.805932
 30
0.0
 10
52.860102
 20
44.090466
 30
0.0
 10
52.464572
 20
44.355538
 30
0.0
 10
52.056590
 20
44.599680
 30
0.0
 10
51.887581
 20
44.643990
 30
0.0
 10
51.734704
 20
44.653190
 30
0.0
 10
51.598196
 20
44.630720
 30
0.0
 10
51.478294
 20
44.580030
 30
0.0
 10
51.375234
 20
44.504580
 30
0.0
 10
51.289264
 20
44.407810
 30
0.0
 10
51.220584
 20
44.293161
 30
0.0
 10
51.169474
 20
44.164083
 30
0.0
 10
51.136154
 20
44.024020
 30
0.0
 10
51.120854
 20
43.876421
 30
0.0
 10
51.123854
 20
43.724732
 30
0.0
 10
51.145314
 20
43.572397
 30
0.0
 10
51.185504
 20
43.422865
 30
0.0
 10
51.244664
 20
43.279579
 30
0.0
 10
51.323034
 20
43.145989
 30
0.0
 10
51.420844
 20
43.025538
 30
0.0
 10
51.691605
 20
42.481122
 30
0.0
 10
52.001720
 20
41.956041
 30
0.0
 10
52.338767
 20
41.443311
 30
0.0
 10
52.690321
 20
40.935942
 30
0.0
 10
53.043964
 20
40.426950
 30
0.0
 10
53.387271
 20
39.909347
 30
0.0
 10
53.707823
 20
39.376146
 30
0.0
 10
53.993196
 20
38.820362
 30
0.0
 10
54.146867
 20
38.563999
 30
0.0
 10
54.278358
 20
38.292165
 30
0.0
 10
54.508126
 20
37.725704
 30
0.0
 10
54.623068
 20
37.442880
 30
0.0
 10
54.749156
 20
37.168203
 30
0.0
 10
54.894727
 20
36.907567
 30
0.0
 10
55.068106
 20
36.666884
 30
0.0
  0
LWPOLYLINE
  5
103
100
AcDbEntity
  8
Edge.Cuts
 62
1
100
AcDbPolyline
 90
41
 70
1
 10
52.100791
 20
36.603074
 30
0.0
 10
51.770412
 20
37.869616
 30
0.0
 10
51.578136
 20
38.525110
 30
0.0
 10
51.355306
 20
39.177717
 30
0.0
 10
51.092549
 20
39.814160
 30
0.0
 10
50.943270
 20
40.122169
 30
0.0
 10
50.780494
 20
40.421160
 30
0.0
 10
50.603051
 20
40.709471
 30
0.0
 10
50.409767
 20
40.985442
 30
0.0
 10
50.199474
 20
41.247414
 30
0.0
 10
49.970997
 20
41.493727
 30
0.0
 10
49.752481
 20
41.532477
 30
0.0
 10
49.551402
 20
41.524577
 30
0.0
 10
49.367007
 20
41.474587
 30
0.0
 10
49.198549
 20
41.387147
 30
0.0
 10
49.045276
 20
41.266885
 30
0.0
 10
48.906439
 20
41.118411
 30
0.0
 10
48.781289
 20
40.946338
 30
0.0
 10
48.669072
 20
40.755284
 30
0.0
 10
48.569043
 20
40.549863
 30
0.0
 10
48.480443
 20
40.334691
 30
0.0
 10
48.334559
 20
39.893550
 30
0.0
 10
48.225417
 20
39.468785
 30
0.0
 10
48.147007
 20
39.097318
 30
0.0
 10
48.127237
 20
38.919454
 30
0.0
 10
48.091487
 20
38.721335
 30
0.0
 10
47.992067
 20
38.284383
 30
0.0
 10
47.888784
 20
37.826566
 30
0.0
 10
47.848204
 20
37.602365
 30
0.0
 10
47.821674
 20
37.387986
 30
0.0
 10
47.814174
 20
37.188441
 30
0.0
 10
47.830774
 20
37.008742
 30
0.0
 10
47.876444
 20
36.853905
 30
0.0
 10
47.956184
 20
36.728942
 30
0.0
 10
48.010384
 20
36.679222
 30
0.0
 10
48.074994
 20
36.638862
 30
0.0
 10
48.150604
 20
36.608472
 30
0.0
 10
48.237874
 20
36.588682
 30
0.0
 10
48.449865
 20
36.583382
 30
0.0
 10
48.715952
 20
36.628042
 30
0.0
 10
52.100726
 20
36.603092
 30
0.0
  0
LWPOLYLINE
  5
104
100
AcDbEntity
  8
Edge.Cuts
 62
1
100
AcDbPolyline
 90
30
 70
1
 10
46.063016
 20
36.655709
 30
0.0
 10
46.083996
 20
37.466179
 30
0.0
 10
46.139936
 20
38.279244
 30
0.0
 10
46.289931
 20
39.907845
 30
0.0
 10
46.350611
 20
40.720725
 30
0.0
 10
46.379501
 20
41.530890
 30
0.0
 10
46.376801
 20
41.934539
 30
0.0
 10
46.359911
 20
42.337010
 30
0.0
 10
46.326711
 20
42.738138
 30
0.0
 10
46.275141
 20
43.137759
 30
0.0
 10
46.169471
 20
43.279928
 30
0.0
 10
46.058419
 20
43.375778
 30
0.0
 10
45.943331
 20
43.429448
 30
0.0
 10
45.825550
 20
43.445078
 30
0.0
 10
45.706425
 20
43.426798
 30
0.0
 10
45.587296
 20
43.378748
 30
0.0
 10
45.469510
 20
43.305068
 30
0.0
 10
45.354409
 20
43.209898
 30
0.0
 10
45.137651
 20
42.971638
 30
0.0
 10
44.947775
 20
42.697072
 30
0.0
 10
44.795541
 20
42.419310
 30
0.0
 10
44.691706
 20
42.171454
 30
0.0
 10
44.351237
 20
41.507965
 30
0.0
 10
44.049986
 20
40.828234
 30
0.0
 10
43.777161
 20
40.136673
 30
0.0
 10
43.521972
 20
39.437693
 30
0.0
 10
43.021346
 20
38.035111
 30
0.0
 10
42.754327
 20
37.340335
 30
0.0
 10
42.461781
 20
36.655781
 30
0.0
 10
46.063033
 20
36.655722
 30
0.0
  0
LWPOLYLINE
  5
105
100
AcDbEntity
  8
Edge.Cuts
 62
1
100
AcDbPolyline
 90
28
 70
1
 10
40.358299
 20
36.655781
 30
0.0
 10
40.553893
 20
37.386576
 30
0.0
 10
40.771672
 20
38.128953
 30
0.0
 10
40.987594
 20
38.879949
 30
0.0
 10
41.177607
 20
39.636598
 30
0.0
 10
41.255387
 20
40.016117
 30
0.0
 10
41.317667
 20
40.395936
 30
0.0
 10
41.361447
 20
40.775688
 30
0.0
 10
41.383707
 20
41.155000
 30
0.0
 10
41.381507
 20
41.533505
 30
0.0
 10
41.351757
 20
41.910828
 30
0.0
 10
41.291477
 20
42.286602
 30
0.0
 10
41.197667
 20
42.660453
 30
0.0
 10
41.048773
 20
42.766910
 30
0.0
 10
40.902667
 20
42.822670
 30
0.0
 10
40.759734
 20
42.832860
 30
0.0
 10
40.620360
 20
42.802600
 30
0.0
 10
40.484926
 20
42.737000
 30
0.0
 10
40.353818
 20
42.641180
 30
0.0
 10
40.227419
 20
42.520254
 30
0.0
 10
40.106113
 20
42.379345
 30
0.0
 10
39.880324
 20
42.058044
 30
0.0
 10
39.679517
 20
41.718222
 30
0.0
 10
39.365159
 20
41.146791
 30
0.0
 10
38.265664
 20
38.886227
 30
0.0
 10
37.699379
 20
37.765294
 30
0.0
 10
37.109930
 20
36.655763
 30
0.0
 10
40.358326
 20
36.655783
 30
0.0
  0
LWPOLYLINE
  5
106
100
AcDbEntity
  8
Edge.Cuts
 62
1
100
AcDbPolyline
 90
57
 70
0
 10
60.185079
 20
42.660671
 30
0.0
 10
59.573518
 20
42.959366
 30
0.0
 10
59.258177
 20
43.092728
 30
0.0
 10
58.876694
 20
43.226840
 30
0.0
 10
58.698783
 20
43.215950
 30
0.0
 10
58.564830
 20
43.173620
 30
0.0
 10
58.471130
 20
43.103950
 30
0.0
 10
58.414040
 20
43.011040
 30
0.0
 10
58.389830
 20
42.898970
 30
0.0
 10
58.394830
 20
42.771834
 30
0.0
 10
58.425350
 20
42.633723
 30
0.0
 10
58.477700
 20
42.488728
 30
0.0
 10
58.548190
 20
42.340939
 30
0.0
 10
58.633140
 20
42.194445
 30
0.0
 10
58.831635
 20
41.921710
 30
0.0
 10
59.043693
 20
41.703249
 30
0.0
 10
59.145585
 20
41.624589
 30
0.0
 10
59.239805
 20
41.571779
 30
0.0
 10
59.847984
 20
40.994389
 30
0.0
 10
60.436710
 20
40.395640
 30
0.0
 10
61.010054
 20
39.781009
 30
0.0
 10
61.572094
 20
39.155967
 30
0.0
 10
62.678551
 20
37.896558
 30
0.0
 10
63.231114
 20
37.273138
 30
0.0
 10
63.788672
 20
36.661207
 30
0.0
 10
64.431940
 20
36.673287
 30
0.0
 10
65.085315
 20
36.670187
 30
0.0
 10
66.403178
 20
36.647327
 30
0.0
 10
67.058067
 20
36.641927
 30
0.0
 10
67.703862
 20
36.650127
 30
0.0
 10
68.335763
 20
36.679237
 30
0.0
 10
68.948971
 20
36.736387
 30
0.0
 10
68.976951
 20
36.909530
 30
0.0
 10
68.988151
 20
37.084906
 30
0.0
 10
68.983751
 20
37.261988
 30
0.0
 10
68.965171
 20
37.440256
 30
0.0
 10
68.890321
 20
37.798244
 30
0.0
 10
68.773689
 20
38.154683
 30
0.0
 10
68.625414
 20
38.505382
 30
0.0
 10
68.455643
 20
38.846156
 30
0.0
 10
68.092202
 20
39.481159
 30
0.0
 10
67.832167
 20
39.782473
 30
0.0
 10
67.557622
 20
40.050373
 30
0.0
 10
67.268852
 20
40.287926
 30
0.0
 10
66.966138
 20
40.498206
 30
0.0
 10
66.649766
 20
40.684283
 30
0.0
 10
66.320017
 20
40.849245
 30
0.0
 10
65.977179
 20
40.996132
 30
0.0
 10
65.621537
 20
41.128026
 30
0.0
 10
64.872964
 20
41.359134
 30
0.0
 10
64.076521
 20
41.567192
 30
0.0
 10
63.234586
 20
41.776664
 30
0.0
 10
62.349376
 20
42.012169
 30
0.0
 10
61.077403
 20
42.404711
 30
0.0
 10
60.646406
 20
42.535661
 30
0.0
 10
60.184953
 20
42.660615
 30
0.0
 10
60.184953
 20
42.660615
 30
0.0
  0
LWPOLYLINE
  5
107
100
AcDbEntity
  8
Edge.Cuts
 62
1
100
AcDbPolyline
 90
44
 70
1
 10
69.380013
 20
41.069747
 30
0.0
 10
70.076324
 20
40.773747
 30
0.0
 10
70.692720
 20
40.468882
 30
0.0
 10
71.237833
 20
40.147349
 30
0.0
 10
71.486355
 20
39.977892
 30
0.0
 10
71.720292
 20
39.801345
 30
0.0
 10
71.940727
 20
39.616728
 30
0.0
 10
72.148734
 20
39.423067
 30
0.0
 10
72.345394
 20
39.219388
 30
0.0
 10
72.531786
 20
39.004714
 30
0.0
 10
72.708988
 20
38.778068
 30
0.0
 10
72.878081
 20
38.538480
 30
0.0
 10
73.196250
 20
38.016565
 30
0.0
 10
73.519088
 20
37.647976
 30
0.0
 10
73.702930
 20
37.428887
 30
0.0
 10
73.872117
 20
37.206859
 30
0.0
 10
74.004444
 20
36.997077
 30
0.0
 10
74.049854
 20
36.901527
 30
0.0
 10
74.077714
 20
36.814727
 30
0.0
 10
74.085314
 20
36.738597
 30
0.0
 10
74.069764
 20
36.675017
 30
0.0
 10
74.028344
 20
36.625887
 30
0.0
 10
73.958294
 20
36.593117
 30
0.0
 10
73.349587
 20
36.578637
 30
0.0
 10
73.061444
 20
36.593467
 30
0.0
 10
72.783347
 20
36.633567
 30
0.0
 10
72.514734
 20
36.706827
 30
0.0
 10
72.255032
 20
36.821153
 30
0.0
 10
72.003678
 20
36.984462
 30
0.0
 10
71.760100
 20
37.204661
 30
0.0
 10
71.444099
 20
37.566317
 30
0.0
 10
71.171886
 20
37.935864
 30
0.0
 10
70.932429
 20
38.311902
 30
0.0
 10
70.714699
 20
38.693030
 30
0.0
 10
70.300271
 20
39.464948
 30
0.0
 10
70.081507
 20
39.852937
 30
0.0
 10
69.840334
 20
40.240410
 30
0.0
 10
69.719907
 20
40.437741
 30
0.0
 10
69.582227
 20
40.620060
 30
0.0
 10
69.451081
 20
40.801038
 30
0.0
 10
69.350253
 20
40.994346
 30
0.0
 10
69.340853
 20
41.026866
 30
0.0
 10
69.346253
 20
41.047366
 30
0.0
 10
69.380103
 20
41.069746
 30
0.0
  0
LWPOLYLINE
  5
108
100
AcDbEntity
  8
Edge.Cuts
 62
1
100
AcDbPolyline
 90
39
 70
1
 10
21.581425
 20
28.079846
 30
0.0
 10
21.657365
 20
27.963029
 30
0.0
 10
21.710805
 20
27.829415
 30
0.0
 10
21.742385
 20
27.684257
 30
0.0
 10
21.752745
 20
27.532805
 30
0.0
 10
21.742515
 20
27.380309
 30
0.0
 10
21.712335
 20
27.232021
 30
0.0
 10
21.662835
 20
27.093192
 30
0.0
 10
21.594675
 20
26.969074
 30
0.0
 10
21.508475
 20
26.864917
 30
0.0
 10
21.404878
 20
26.785967
 30
0.0
 10
21.284520
 20
26.737487
 30
0.0
 10
21.148040
 20
26.724717
 30
0.0
 10
20.825246
 20
26.745667
 30
0.0
 10
20.524841
 20
26.786127
 30
0.0
 10
20.388305
 20
26.801787
 30
0.0
 10
20.264567
 20
26.837817
 30
0.0
 10
20.155381
 20
26.891367
 30
0.0
 10
20.062501
 20
26.959607
 30
0.0
 10
19.987681
 20
27.039677
 30
0.0
 10
19.932691
 20
27.128737
 30
0.0
 10
19.899291
 20
27.223947
 30
0.0
 10
19.889221
 20
27.322477
 30
0.0
 10
19.904251
 20
27.421467
 30
0.0
 10
19.946121
 20
27.518087
 30
0.0
 10
20.016601
 20
27.609477
 30
0.0
 10
20.117439
 20
27.692807
 30
0.0
 10
20.250400
 20
27.765227
 30
0.0
 10
20.441024
 20
27.885109
 30
0.0
 10
20.540264
 20
27.923019
 30
0.0
 10
20.645904
 20
27.943539
 30
0.0
 10
20.882092
 20
28.049826
 30
0.0
 10
20.983770
 20
28.078916
 30
0.0
 10
21.056210
 20
28.113346
 30
0.0
 10
21.167989
 20
28.176856
 30
0.0
 10
21.304563
 20
28.216476
 30
0.0
 10
21.412096
 20
28.221676
 30
0.0
 10
21.500936
 20
28.180236
 30
0.0
 10
21.581426
 20
28.079814
 30
0.0
  0
LWPOLYLINE
  5
109
100
AcDbEntity
  8
Edge.Cuts
 62
1
100
AcDbPolyline
 90
31
 70
1
 10
30.458343
 20
11.289575
 30
0.0
 10
32.231336
 20
11.365905
 30
0.0
 10
32.322066
 20
11.358105
 30
0.0
 10
32.376746
 20
11.341825
 30
0.0
 10
32.401976
 20
11.318615
 30
0.0
 10
32.404376
 20
11.290025
 30
0.0
 10
32.366896
 20
11.222905
 30
0.0
 10
32.317086
 20
11.152885
 30
0.0
 10
32.072202
 20
11.029450
 30
0.0
 10
31.823356
 20
10.922786
 30
0.0
 10
31.571285
 20
10.833386
 30
0.0
 10
31.316732
 20
10.761776
 30
0.0
 10
31.060439
 20
10.708456
 30
0.0
 10
30.803147
 20
10.673926
 30
0.0
 10
30.545592
 20
10.658696
 30
0.0
 10
30.288520
 20
10.663296
 30
0.0
 10
30.032670
 20
10.688176
 30
0.0
 10
29.778782
 20
10.733886
 30
0.0
 10
29.527598
 20
10.800926
 30
0.0
 10
29.279856
 20
10.889806
 30
0.0
 10
28.692269
 20
11.108935
 30
0.0
 10
28.630429
 20
11.170395
 30
0.0
 10
28.607689
 20
11.230055
 30
0.0
 10
28.629469
 20
11.284325
 30
0.0
 10
28.701199
 20
11.329625
 30
0.0
 10
28.828293
 20
11.362365
 30
0.0
 10
29.016182
 20
11.378965
 30
0.0
 10
29.270290
 20
11.375865
 30
0.0
 10
29.596042
 20
11.349425
 30
0.0
 10
30.017269
 20
11.308495
 30
0.0
 10
30.458371
 20
11.289605
 30
0.0
  0
ENDSEC
  0
SECTION
  2
OBJECTS
  0
DICTIONARY
  5
C
330
0
100
AcDbDictionary
  3
ACAD_GROUP
350
D
  3
ACAD_MLINESTYLE
350
17
  0
DICTIONARY
  5
D
330
C
100
AcDbDictionary
  0
DICTIONARY
  5
1A
330
C
100
AcDbDictionary
  0
DICTIONARY
  5
17
330
C
100
AcDbDictionary
  3
STANDARD
350
18
  0
DICTIONARY
  5
19
330
C
100
AcDbDictionary
  0
ENDSEC
  0
EOF
